<svg xmlns="http://www.w3.org/2000/svg" viewBox="0 0 240 180" fill="none" stroke="currentColor" stroke-width="1.5" stroke-linecap="round" stroke-linejoin="round" role="img" aria-label="No lesions detected">
  <title>No lesions detected</title>
  <path d="M60 74c0-22 18-40 40-40h40c22 0 40 18 40 40v30c0 14-11 26-25 26H85c-14 0-25-12-25-26z" opacity="0.6"/>
  <path d="M84 74c12-4 26-3 38 2s24 10 36 6" opacity="0.4"/>
  <path d="M96 102c8-2 18 1 28 4s22 2 30-1" opacity="0.4"/>
  <circle cx="120" cy="90" r="24" stroke-dasharray="3 4" opacity="0.5"/>
  <path d="M108 90l8 8 16-16" stroke-width="2"/>
  <circle cx="60" cy="156" r="1.5" fill="currentColor" opacity="0.4"/>
  <circle cx="120" cy="156" r="1.5" fill="currentColor" opacity="0.4"/>
  <circle cx="180" cy="156" r="1.5" fill="currentColor" opacity="0.4"/>
</svg>
